<svg width="16" height="16" viewBox="0 0 16 16" fill="none" xmlns="http://www.w3.org/2000/svg">
<path d="M8.36364 4.54545C8.36364 4.40079 8.30618 4.26205 8.20388 4.15976C8.10159 4.05747 7.96285 4 7.81819 4C7.67353 4 7.53479 4.05747 7.4325 4.15976C7.3302 4.26205 7.27274 4.40079 7.27274 4.54545V8.54545C7.27274 8.74182 7.37746 8.92218 7.54764 9.01891L10.0931 10.4735C10.2184 10.5412 10.3652 10.5572 10.5022 10.5181C10.6391 10.479 10.7554 10.3879 10.826 10.2642C10.8967 10.1406 10.9162 9.99416 10.8803 9.85631C10.8445 9.71847 10.7561 9.60012 10.6342 9.52655L8.36364 8.22909V4.54545Z" fill="white"/>
<path d="M8 0C12.4182 0 16 3.58182 16 8C16 12.4182 12.4182 16 8 16C3.58182 16 0 12.4182 0 8C0 3.58182 3.58182 0 8 0ZM1.09091 8C1.09091 9.83241 1.81883 11.5898 3.11454 12.8855C4.41024 14.1812 6.1676 14.9091 8 14.9091C9.83241 14.9091 11.5898 14.1812 12.8855 12.8855C14.1812 11.5898 14.9091 9.83241 14.9091 8C14.9091 6.1676 14.1812 4.41024 12.8855 3.11454C11.5898 1.81883 9.83241 1.09091 8 1.09091C6.1676 1.09091 4.41024 1.81883 3.11454 3.11454C1.81883 4.41024 1.09091 6.1676 1.09091 8Z" fill="white"/>
</svg>
