<svg width="30" height="26" viewBox="0 0 30 26" fill="none" xmlns="http://www.w3.org/2000/svg">
<path d="M30 9.76973C30.0006 9.36498 29.8934 8.96729 29.6893 8.61708C29.4851 8.26688 29.1913 7.97666 28.8377 7.77593L16.2018 0.322455C15.8377 0.111277 15.4236 0 15.002 0C14.5804 0 14.1663 0.111277 13.8022 0.322455L1.1476 7.77593C0.797902 7.98216 0.508216 8.27529 0.307009 8.62649C0.105803 8.9777 0 9.3749 0 9.77905C0 10.1832 0.105803 10.5804 0.307009 10.9316C0.508216 11.2828 0.797902 11.5759 1.1476 11.7822L4.74712 13.8691V19.1052C4.74928 19.5144 4.85734 19.9162 5.0609 20.2719C5.26447 20.6276 5.55669 20.9253 5.90946 21.1363L13.8771 25.7015C14.2329 25.8973 14.6329 26 15.0395 26C15.4461 26 15.8461 25.8973 16.2018 25.7015L24.1695 21.1363C24.5223 20.9253 24.8145 20.6276 25.0181 20.2719C25.2216 19.9162 25.3297 19.5144 25.3319 19.1052V13.8132L27.6566 12.453V17.5213H30V9.76973ZM23.0072 19.0866L15.002 23.6705L7.09055 19.1052V15.248L13.8022 19.217C14.1676 19.4245 14.5811 19.5337 15.002 19.5337C15.4229 19.5337 15.8364 19.4245 16.2018 19.217L22.9884 15.1921L23.0072 19.0866ZM15.002 17.2046L2.34744 9.7511L15.002 2.27899L27.6566 9.73246L15.002 17.2046Z" fill="black"/>
</svg>
