<svg width="21" height="23" viewBox="0 0 21 23" fill="none" xmlns="http://www.w3.org/2000/svg">
<path d="M10.1502 0.943551L9.79914 0.221459L10.1492 0.943551H10.1502ZM0.807711 9.6108L1.61219 9.54234C1.59365 9.33685 1.49613 9.14635 1.3399 9.01042C1.18366 8.87448 0.980711 8.80355 0.773204 8.81236C0.565698 8.82118 0.369584 8.90905 0.225597 9.05774C0.0816098 9.20642 0.000816996 9.40449 0 9.6108H0.807711ZM19.37 11.561L18.6097 15.9256L20.2025 16.1995L20.9617 11.8348L19.37 11.561ZM11.841 21.3953H6.83431V23H11.841V21.3953ZM5.85321 20.5L4.97873 10.4516L3.36869 10.5896L4.24425 20.638L5.85321 20.5ZM18.6097 15.9256C18.0636 19.06 15.2183 21.3953 11.841 21.3953V23C15.9614 23 19.5154 20.1448 20.2025 16.1995L18.6097 15.9256ZM11.8518 4.11862L11.1378 8.44582L12.7317 8.70471L13.4457 4.37857L11.8518 4.11862ZM5.31797 9.62364L6.86769 8.29713L5.81228 7.08187L4.26471 8.40838L5.31797 9.62364ZM9.68606 3.98169L10.1987 2.01974L8.63496 1.6175L8.12234 3.57839L9.68606 3.98169ZM10.9719 1.63462L11.1281 1.6849L11.6224 0.157273L11.4663 0.106994L10.9719 1.63462ZM8.90958 5.95434C9.246 5.32959 9.50664 4.66741 9.68606 3.98169L8.12234 3.57839C7.9751 4.14177 7.76109 4.6858 7.48478 5.19908L8.91066 5.95434H8.90958ZM11.1281 1.6849C11.2818 1.73116 11.4212 1.81523 11.5334 1.92931C11.6456 2.04339 11.727 2.18379 11.77 2.33746L13.3337 1.93523C13.2224 1.51963 13.0072 1.13871 12.708 0.82787C12.4088 0.517031 12.0354 0.286354 11.6224 0.157273L11.1281 1.6849ZM10.1987 2.01974C10.2202 1.94268 10.2582 1.8712 10.3103 1.81023C10.3624 1.74927 10.4272 1.7003 10.5002 1.66671L9.79914 0.221459C9.22621 0.495319 8.79543 1.00239 8.63496 1.6175L10.1987 2.01974ZM10.5002 1.66671C10.6476 1.59679 10.8163 1.58531 10.9719 1.63462L11.4663 0.106994C10.9163 -0.068106 10.3196 -0.027141 9.79914 0.221459L10.4992 1.66671H10.5002ZM12.82 10.4131H18.3986V8.80848H12.82V10.4131ZM2.65898 21.5622L1.61219 9.54234L0.00323086 9.68034L1.04787 21.7002L2.65898 21.5622ZM1.61542 21.6767V9.6108H0V21.6767H1.61542ZM1.04787 21.7002C1.04458 21.6614 1.05055 21.6222 1.06331 21.5853C1.07606 21.5484 1.0964 21.5146 1.12304 21.4859C1.14968 21.4572 1.18202 21.4344 1.21803 21.4188C1.25403 21.4032 1.29291 21.3952 1.33218 21.3953V23C2.11405 23 2.72575 22.3346 2.65898 21.5622L1.04895 21.7013L1.04787 21.7002ZM13.4457 4.37857C13.58 3.56526 13.5419 2.73305 13.3337 1.93523L11.77 2.33853C11.9217 2.91975 11.9496 3.52607 11.8518 4.11862L13.4457 4.37857ZM6.83431 21.3953C6.5877 21.3949 6.35019 21.3028 6.1686 21.137C5.987 20.9713 5.87448 20.744 5.85321 20.5L4.24425 20.638C4.30029 21.2821 4.59736 21.882 5.07684 22.3193C5.55633 22.7566 6.18339 22.9995 6.83431 23V21.3953ZM6.86769 8.29713C7.60002 7.67024 8.38834 6.92462 8.91066 5.95434L7.48478 5.19908C7.11216 5.89336 6.51876 6.47852 5.81228 7.08187L6.86769 8.29713ZM20.9617 11.8348C21.0265 11.4636 21.0089 11.0828 20.91 10.7191C20.8111 10.3553 20.6333 10.0175 20.3891 9.72917C20.1449 9.44086 19.8403 9.20907 19.4964 9.05003C19.1526 8.89099 18.7779 8.80854 18.3986 8.80848V10.4131C19.0092 10.4131 19.4755 10.9608 19.37 11.561L20.9617 11.8348ZM1.33218 21.3953C1.48942 21.3953 1.61542 21.5216 1.61542 21.6767H0C0 22.4063 0.595552 23 1.33218 23V21.3953ZM11.1378 8.44582C11.0976 8.68821 11.1111 8.93637 11.1771 9.17309C11.2432 9.40982 11.3603 9.62943 11.5203 9.81669C11.6804 10.004 11.8795 10.1544 12.1039 10.2576C12.3284 10.3608 12.5727 10.4131 12.82 10.4131V8.80848C12.8068 8.80853 12.7938 8.80678 12.7819 8.80128C12.77 8.79579 12.7595 8.78775 12.751 8.77773C12.7426 8.76772 12.7365 8.75599 12.7331 8.74337C12.7298 8.73075 12.7293 8.71755 12.7317 8.70471L11.1378 8.44582ZM4.97873 10.4516C4.96542 10.2967 4.98825 10.1409 5.04741 9.99692C5.10658 9.85297 5.1993 9.72504 5.31797 9.62364L4.26256 8.40731C3.95026 8.67479 3.70637 9.01211 3.55097 9.39152C3.39557 9.77092 3.3331 10.1816 3.36869 10.5896L4.97873 10.4506V10.4516Z" fill="black"/>
<path d="M4.17093 11.222C4.07966 10.0356 5.03818 9.03244 6.2275 9.06961L17.9078 9.43462C19.0476 9.47024 19.9269 10.4501 19.8395 11.587L19.5271 15.6476C19.5092 15.8807 19.4505 16.1089 19.3537 16.3218L17.5089 20.3805C17.1968 21.0671 16.5249 21.5198 15.7714 21.5512L6.92927 21.9196C5.85298 21.9645 4.93452 21.1488 4.8519 20.0747L4.17093 11.222Z" fill="black"/>
<path d="M10 1.5L12 1V10H5L10 1.5Z" fill="black"/>
</svg>
