<svg width="89" height="113" viewBox="0 0 89 113" fill="none" xmlns="http://www.w3.org/2000/svg">
<path d="M44.2858 112.727L10.3226 72.6729C9.85073 72.0715 9.3837 71.4662 8.92161 70.8572C3.1201 63.215 -0.0140152 53.8805 4.71155e-05 44.2857C4.71155e-05 32.5404 4.66585 21.2762 12.971 12.971C21.2762 4.66581 32.5405 0 44.2858 0C56.0311 0 67.2953 4.66581 75.6005 12.971C83.9057 21.2762 88.5715 32.5404 88.5715 44.2857C88.5856 53.8762 85.4529 63.2064 79.654 70.8451L79.65 70.8572C79.65 70.8572 78.4422 72.4434 78.261 72.6568L44.2858 112.727ZM15.3471 66.0059C15.3551 66.0059 16.2891 67.2459 16.5025 67.5116L44.2858 100.279L72.1053 67.4673C72.2824 67.2459 73.2245 65.9978 73.2285 65.9938C77.9677 59.75 80.5289 52.1244 80.5196 44.2857C80.5196 34.6759 76.7021 25.4597 69.9069 18.6646C63.1118 11.8694 53.8956 8.05195 44.2858 8.05195C34.676 8.05195 25.4598 11.8694 18.6646 18.6646C11.8695 25.4597 8.052 34.6759 8.052 44.2857C8.04355 52.1293 10.6036 59.7592 15.3471 66.0059Z" fill="black"/>
<path d="M44.2857 64.4175C40.3043 64.4175 36.4124 63.2369 33.1021 61.025C29.7917 58.8131 27.2116 55.6692 25.6881 51.991C24.1645 48.3127 23.7658 44.2653 24.5426 40.3605C25.3193 36.4556 27.2365 32.8688 30.0517 30.0536C32.8669 27.2384 36.4537 25.3212 40.3585 24.5445C44.2633 23.7678 48.3108 24.1664 51.989 25.69C55.6673 27.2136 58.8111 29.7937 61.023 33.104C63.2349 36.4144 64.4155 40.3063 64.4155 44.2876C64.4091 49.6244 62.2863 54.7408 58.5126 58.5145C54.7389 62.2882 49.6225 64.4111 44.2857 64.4175ZM44.2857 32.2097C41.8969 32.2097 39.5617 32.918 37.5755 34.2452C35.5893 35.5723 34.0412 37.4586 33.1271 39.6656C32.213 41.8725 31.9738 44.301 32.4398 46.6439C32.9058 48.9868 34.0561 51.1389 35.7453 52.828C37.4344 54.5171 39.5865 55.6674 41.9294 56.1335C44.2723 56.5995 46.7007 56.3603 48.9077 55.4462C51.1146 54.532 53.0009 52.9839 54.3281 50.9977C55.6552 49.0115 56.3636 46.6764 56.3636 44.2876C56.3604 41.0853 55.0869 38.0151 52.8225 35.7508C50.5581 33.4864 47.4879 32.2129 44.2857 32.2097Z" fill="black"/>
</svg>
