<svg width="13" height="13" viewBox="0 0 13 13" fill="none" xmlns="http://www.w3.org/2000/svg">
<path d="M6.50045 0C6.64822 0 6.78995 0.0587028 6.89444 0.163195C6.99893 0.267686 7.05763 0.409408 7.05763 0.557181C7.05763 0.704955 6.99893 0.846677 6.89444 0.951168C6.78995 1.05566 6.64822 1.11436 6.50045 1.11436C5.07197 1.11436 3.702 1.68182 2.69191 2.69191C1.68182 3.702 1.11436 5.07197 1.11436 6.50045C1.11436 7.92893 1.68182 9.2989 2.69191 10.309C3.702 11.3191 5.07197 11.8865 6.50045 11.8865C6.64822 11.8865 6.78995 11.9452 6.89444 12.0497C6.99893 12.1542 7.05763 12.2959 7.05763 12.4437C7.05763 12.5915 6.99893 12.7332 6.89444 12.8377C6.78995 12.9422 6.64822 13.0009 6.50045 13.0009C4.77642 13.0009 3.12301 12.316 1.90394 11.097C0.684867 9.87789 0 8.22448 0 6.50045C0 4.77642 0.684867 3.12301 1.90394 1.90394C3.12301 0.684867 4.77642 0 6.50045 0Z" fill="black"/>
<path d="M9.82083 4.66554C9.72241 4.55992 9.66883 4.42022 9.67138 4.27587C9.67392 4.13152 9.7324 3.9938 9.83449 3.89171C9.93657 3.78963 10.0743 3.73115 10.2186 3.7286C10.363 3.72606 10.5027 3.77964 10.6083 3.87806L12.837 6.10678C12.9414 6.21126 13 6.35287 13 6.50052C13 6.64818 12.9414 6.78979 12.837 6.89427L10.6083 9.12299C10.5573 9.17773 10.4958 9.22164 10.4274 9.2521C10.3591 9.28255 10.2853 9.29892 10.2105 9.30024C10.1357 9.30156 10.0614 9.2878 9.992 9.25978C9.92262 9.23176 9.8596 9.19004 9.80669 9.13714C9.75378 9.08423 9.71207 9.0212 9.68404 8.95182C9.65602 8.88245 9.64226 8.80813 9.64358 8.73332C9.6449 8.65851 9.66127 8.58473 9.69173 8.51638C9.72218 8.44803 9.76609 8.38652 9.82083 8.33551L11.0986 7.05771H5.01421C4.86644 7.05771 4.72472 6.999 4.62023 6.89451C4.51573 6.79002 4.45703 6.6483 4.45703 6.50052C4.45703 6.35275 4.51573 6.21103 4.62023 6.10654C4.72472 6.00205 4.86644 5.94334 5.01421 5.94334H11.0986L9.82083 4.66554Z" fill="black"/>
</svg>
