<svg width="18" height="11" viewBox="0 0 18 11" fill="none" xmlns="http://www.w3.org/2000/svg">
<path fill-rule="evenodd" clip-rule="evenodd" d="M12.2432 0.185018C12.5553 0.457426 12.5874 0.931212 12.315 1.24325L4.458 10.2432C4.31558 10.4064 4.10959 10.5 3.89302 10.5C3.67646 10.5 3.47046 10.4064 3.32803 10.2433L0.185034 6.64327C-0.0873837 6.33124 -0.0552733 5.85745 0.256755 5.58503C0.568783 5.31262 1.04257 5.34473 1.31499 5.65675L3.89299 8.60961L11.185 0.256772C11.4574 -0.0552641 11.9312 -0.0873895 12.2432 0.185018ZM17.2673 0.269925C17.5672 0.555599 17.5788 1.03033 17.2931 1.33027L8.7211 10.3303C8.56954 10.4894 8.35581 10.574 8.13639 10.5619C7.91698 10.5497 7.71395 10.4418 7.58095 10.2669L7.15295 9.7039C6.90227 9.37416 6.96637 8.90363 7.29612 8.65295C7.57927 8.4377 7.96622 8.45454 8.22865 8.67238L16.2069 0.295751C16.4926 -0.00418687 16.9673 -0.0157499 17.2673 0.269925Z" fill="black"/>
</svg>
