<svg width="18" height="18" viewBox="0 0 18 18" fill="none" xmlns="http://www.w3.org/2000/svg">
<path d="M17.898 16.3594C16.5812 14.0686 14.5521 12.4259 12.1841 11.6472C13.3555 10.9455 14.2655 9.87618 14.7745 8.60356C15.2835 7.33095 15.3634 5.92536 15.0018 4.60266C14.6402 3.27997 13.8571 2.11329 12.7729 1.28181C11.6886 0.45032 10.3632 0 9 0C7.63684 0 6.31136 0.45032 5.22712 1.28181C4.14289 2.11329 3.35984 3.27997 2.99824 4.60266C2.63664 5.92536 2.71647 7.33095 3.22548 8.60356C3.7345 9.87618 4.64454 10.9455 5.81586 11.6472C3.44786 12.425 1.41876 14.0677 0.102048 16.3594C0.0537623 16.4387 0.0217345 16.5268 0.0078546 16.6187C-0.00602527 16.7106 -0.00147602 16.8044 0.0212339 16.8945C0.0439439 16.9846 0.0843545 17.0692 0.140082 17.1433C0.195809 17.2174 0.265723 17.2795 0.3457 17.326C0.425677 17.3725 0.514097 17.4024 0.605742 17.414C0.697387 17.4255 0.790402 17.4185 0.879298 17.3932C0.968193 17.368 1.05117 17.3251 1.12333 17.2671C1.19549 17.2091 1.25538 17.1371 1.29945 17.0555C2.92826 14.2226 5.80722 12.5312 9 12.5312C12.1928 12.5312 15.0717 14.2226 16.7006 17.0555C16.7446 17.1371 16.8045 17.2091 16.8767 17.2671C16.9488 17.3251 17.0318 17.368 17.1207 17.3932C17.2096 17.4185 17.3026 17.4255 17.3943 17.414C17.4859 17.4024 17.5743 17.3725 17.6543 17.326C17.7343 17.2795 17.8042 17.2174 17.8599 17.1433C17.9156 17.0692 17.9561 16.9846 17.9788 16.8945C18.0015 16.8044 18.006 16.7106 17.9921 16.6187C17.9783 16.5268 17.9462 16.4387 17.898 16.3594ZM4.15852 6.26677C4.15852 5.30312 4.44247 4.36111 4.97445 3.55986C5.50644 2.75861 6.26258 2.13411 7.14725 1.76534C8.03191 1.39657 9.00537 1.30008 9.94453 1.48808C10.8837 1.67608 11.7464 2.14012 12.4234 2.82152C13.1005 3.50293 13.5616 4.37109 13.7485 5.31623C13.9353 6.26136 13.8394 7.24102 13.4729 8.13132C13.1065 9.02162 12.486 9.78257 11.6898 10.318C10.8936 10.8533 9.95755 11.1391 9 11.1391C7.71638 11.1377 6.48573 10.6239 5.57807 9.71049C4.67042 8.79705 4.15989 7.55856 4.15852 6.26677Z" fill="black"/>
</svg>
