<svg width="210" height="84" viewBox="0 0 210 84" fill="none" xmlns="http://www.w3.org/2000/svg">
<path d="M10.999 82.8333L15.3284 63.1167H0L2.69125 50.6333H18.0197L21.764 33.3667H6.4356L9.12686 20.8833H24.4553L28.5507 1.16667H41.8899L37.6775 20.8833H52.4209L56.6333 1.16667H69.8556L65.6432 20.8833H80.9716L78.2804 33.3667H62.9519L59.2076 50.6333H74.536L71.8448 63.1167H56.5163L52.3039 82.8333H39.0817L43.4111 63.1167H28.5507L24.3383 82.8333H10.999ZM31.2419 50.6333H45.9853L49.7297 33.3667H34.9863L31.2419 50.6333Z" fill="black"/>
<path d="M109.969 84C103.261 84 97.4101 82.8333 92.4177 80.5C87.5032 78.0889 83.7198 74.8611 81.0676 70.8167C78.4933 66.6944 77.2062 62.1444 77.2062 57.1667H92.3006C92.3006 59.6556 92.9637 61.9111 94.2898 63.9333C95.694 65.9556 97.7222 67.5889 100.374 68.8333C103.027 70 106.225 70.5833 109.969 70.5833C115.508 70.5833 119.642 69.5722 122.372 67.55C125.181 65.5278 126.585 62.8833 126.585 59.6167C126.585 56.8944 125.571 54.6778 123.543 52.9667C121.514 51.1778 118.316 49.8556 113.948 49L99.9064 46.4333C95.2259 45.5778 91.3256 44.2167 88.2053 42.35C85.085 40.4833 82.7447 38.0722 81.1846 35.1167C79.7025 32.0833 78.9614 28.5056 78.9614 24.3833C78.9614 19.7167 80.1315 15.5556 82.4717 11.9C84.89 8.24445 88.3223 5.36667 92.7687 3.26667C97.2931 1.08889 102.637 0 108.799 0C115.43 0 121.163 1.16667 126 3.50001C130.914 5.75556 134.62 8.94445 137.116 13.0667C139.69 17.1111 140.977 21.7 140.977 26.8333H126C126 24.4222 125.298 22.2056 123.894 20.1833C122.489 18.0833 120.5 16.45 117.926 15.2833C115.352 14.0389 112.31 13.4167 108.799 13.4167C104.119 13.4167 100.491 14.4667 97.9172 16.5667C95.3429 18.5889 94.0558 21.1944 94.0558 24.3833C94.0558 26.95 94.9139 29.0111 96.6301 30.5667C98.3462 32.1222 101.232 33.2889 105.289 34.0667L118.16 36.4C123.699 37.3333 128.145 38.7722 131.499 40.7167C134.932 42.6611 137.467 45.1889 139.105 48.3C140.743 51.4111 141.562 55.1833 141.562 59.6167C141.562 64.2833 140.353 68.4833 137.935 72.2167C135.517 75.8722 131.928 78.75 127.17 80.85C122.411 82.95 116.678 84 109.969 84Z" fill="black"/>
<path d="M145.995 82.8333V1.16667H161.089V37.5667L189.172 1.16667H207.66L176.301 41.4167L210 82.8333H191.395L161.089 44.9167V82.8333H145.995Z" fill="black"/>
</svg>
